<?xml version="1.0" encoding="UTF-8" standalone="no"?>
<!-- Created with Inkscape (http://www.inkscape.org/) -->

<svg
   width="500"
   height="500"
   viewBox="0 0 132.29166 132.29167"
   version="1.1"
   id="svg12"
   sodipodi:docname="nusantara_bites.svg"
   inkscape:version="1.1.2 (0a00cf5339, 2022-02-04)"
   xmlns:inkscape="http://www.inkscape.org/namespaces/inkscape"
   xmlns:sodipodi="http://sodipodi.sourceforge.net/DTD/sodipodi-0.dtd"
   xmlns="http://www.w3.org/2000/svg"
   xmlns:svg="http://www.w3.org/2000/svg">
  <sodipodi:namedview
     id="namedview14"
     pagecolor="#ffffff"
     bordercolor="#cccccc"
     borderopacity="1"
     inkscape:pageshadow="0"
     inkscape:pageopacity="1"
     inkscape:pagecheckerboard="0"
     inkscape:document-units="mm"
     showgrid="false"
     inkscape:zoom="1"
     inkscape:cx="282.5"
     inkscape:cy="238.5"
     inkscape:window-width="1274"
     inkscape:window-height="1005"
     inkscape:window-x="13"
     inkscape:window-y="11"
     inkscape:window-maximized="0"
     inkscape:current-layer="layer1"
     units="px"
     width="500px" />
  <defs
     id="defs9" />
  <g
     inkscape:label="Layer 1"
     inkscape:groupmode="layer"
     id="layer1">
    <path
       style="fill:#4d4d4d;stroke-width:0.258675"
       d="m 60.707965,120.05819 c -4.752352,-0.23887 -6.60265,-0.50583 -11.583159,-1.67119 -6.030697,-1.41114 -13.282127,-4.62679 -18.964939,-8.41002 -1.711308,-1.13929 -3.25802,-2.20494 -3.437132,-2.36813 -0.179103,-0.16319 -0.909972,-0.76055 -1.624137,-1.32744 -1.891089,-1.50113 -7.497469,-7.17669 -9.191994,-9.305414 C 9.0062335,88.30751 4.2355116,76.231789 1.7069184,61.033604 0.80266845,55.598543 0.75256575,54.445724 1.2977166,51.618313 1.6693977,34.635631 107.02808,7.7906701 131.25626,56.806401 c -2.3e-4,5.860313 -1.19003,11.428461 -3.88188,18.166622 -1.54986,3.87955 -6.14475,12.575261 -9.59939,18.166597 -5.18275,8.38826 -11.98751,15.61934 -17.929949,19.05328 -5.291127,3.05755 -13.374382,5.60704 -21.293177,6.71593 -0.642693,0.09 -2.22019,0.31929 -3.505576,0.5095 -1.285379,0.19023 -3.739285,0.41943 -5.453127,0.50934 -1.713842,0.0899 -3.525056,0.20074 -4.024919,0.2463 -0.499881,0.0456 -2.686999,-0.007 -4.860277,-0.11576 z m 44.438245,-18.58078 c 0.70503,-0.31879 1.78651,-1.783382 2.03863,-2.760858 0.19865,-0.770221 -0.15823,-1.720521 -0.72753,-1.937298 -1.16381,-0.443183 -3.96677,2.577683 -3.6294,3.911546 0.2769,1.09484 1.05365,1.35838 2.3183,0.78661 z m 5.39888,-6.379998 c 0.81376,-0.311994 1.4456,-0.924901 2.75073,-2.668321 2.65257,-3.543378 6.03185,-11.712034 5.65963,-13.680918 -0.10319,-0.546123 -0.39489,-1.050303 -0.70185,-1.213333 -0.44673,-0.237233 -0.65714,-0.140119 -1.40806,0.649955 -0.48553,0.510899 -1.23712,1.665591 -1.67017,2.565999 -0.7048,1.465477 -3.02933,5.045056 -6.2399,9.608891 -0.90508,1.286594 -1.14886,1.873872 -1.24238,2.992833 -0.10353,1.238901 -0.0488,1.439534 0.49716,1.822554 0.59858,0.419911 1.10011,0.403368 2.35484,-0.07758 z M 78.292195,85.292274 c 8.451268,-1.119758 16.005956,-2.930253 23.240715,-5.569695 1.42821,-0.521024 3.20048,-1.15596 3.93838,-1.410932 2.31518,-0.799971 7.90999,-3.781868 10.29465,-5.486802 7.82786,-15.206208 8.62753,-5.684499 9.40702,-15.578124 -1.40853,3.437551 -4.61181,7.157516 -8.97103,10.417961 -9.44197,7.062069 -24.917825,11.605953 -44.14188,12.960529 -1.928065,0.135854 -5.784202,0.539863 -8.5692,0.897774 -2.784984,0.357947 -6.115286,0.77973 -7.400667,0.937347 -5.529805,0.678073 -9.422078,1.644202 -8.284861,2.056476 0.644248,0.233573 6.047099,0.981391 9.193715,1.272553 4.307619,0.398572 16.72018,0.108751 21.293158,-0.497087 z m 17.917418,-0.258428 c 11.277847,-2.516698 22.046547,-8.475769 29.562017,-16.358761 1.98769,-2.084897 2.45728,-2.887369 2.76112,-4.718647 0.25105,-1.513038 -0.20052,-1.281555 -1.94681,0.99786 -3.66425,4.782895 -11.42841,10.80051 -17.78219,13.782069 -3.67494,1.724497 -12.478905,4.639863 -17.787589,5.890207 -3.852567,0.907392 -4.019539,0.98562 -2.466889,1.155695 1.781659,0.195171 4.717065,-0.09159 7.660341,-0.748423 z M 77.902699,78.596659 c 5.920844,-0.624604 18.682405,-3.163862 19.423167,-3.864785 0.114067,-0.107905 0.209833,-1.518318 0.212831,-3.134173 0.0089,-4.947954 -1.050634,-7.683229 -4.185482,-10.802467 -2.24258,-2.231444 -3.819094,-3.148721 -6.64384,-3.86563 -5.288836,-1.342287 -10.057057,0.06791 -13.960215,4.128553 -2.462074,2.561455 -3.701226,4.937925 -3.543546,6.795884 0.321363,3.786726 -0.168839,7.16108 -1.441153,9.920184 -0.350999,0.761183 -0.638335,1.398958 -0.638513,1.417252 -0.0013,0.117934 8.432296,-0.347507 10.776751,-0.594818 z M 65.103504,78.065194 c 1.201441,-2.417747 1.797768,-4.970164 1.794477,-7.680885 -0.0039,-2.98365 -0.419393,-4.772201 -1.640202,-7.055762 -0.950677,-1.77822 -3.764621,-4.537468 -5.534421,-5.42682 -8.45619,-4.2494 -17.601129,0.0036 -19.48981,9.063989 -0.660428,3.168212 -0.08538,5.953198 1.772983,8.587069 2.955927,1.22637 20.827361,7.079675 23.096973,2.512409 z M 39.106787,75.279652 c -0.789856,-1.536371 -1.323542,-3.945913 -1.323542,-5.975661 0,-6.945126 5.190698,-13.418926 11.888719,-14.827526 0.959255,-0.201733 2.050474,-0.36881 2.42492,-0.371251 -8.634418,-18.141177 -30.399506,-2.976243 -27.644692,16.371641 1.93434,3.75456 10.781679,5.21692 14.959293,5.769688 0.110007,0.0072 -0.02709,-0.426932 -0.304698,-0.966891 z m 75.176453,-8.75788 c 0.0145,-0.242901 0.44384,-1.484605 0.95401,-2.75937 2.12176,-5.480023 1.9917,-11.188484 0.44026,-17.174838 -7.53411,-18.257101 -40.574051,-13.332522 -30.01118,7.532851 0,0 -0.915267,-1.276577 5.09048,1.482236 7.815093,5.05134 10.18507,8.747368 9.9557,14.202898 -3.746034,7.947965 12.36696,-0.298049 13.57073,-3.283777 z M 14.059573,63.93157 l 0.166236,2.695956 0.900815,0.585961 C 31.720003,80.971328 12.661629,26.706233 14.059573,63.93157 Z M 6.1031622,55.124136 c 0.1330046,2.33512 3.8090583,9.014097 5.6764458,9.541562 3.537366,-4.661541 -3.315375,-20.218809 -5.6764458,-9.541562 z m 65.2620168,4.036961 c 2.667988,-2.710854 5.798758,-4.237111 10.108009,-4.927666 0.949687,-0.152191 0.973773,-0.183438 0.973773,-1.262729 0,-1.700621 -0.954541,-5.018872 -1.887389,-6.561105 -3.730818,-10.062858 -31.47349,-2.026072 -25.835773,7.580691 0.08371,0.08313 0.948956,0.331473 1.922632,0.551862 0.973688,0.22039 2.282528,0.618587 2.908541,0.884869 3.062773,1.302786 6.218715,4.172549 7.721962,7.02171 l 0.73897,1.400589 1.00261,-1.661301 c 0.551444,-0.913687 1.60744,-2.275815 2.346665,-3.02692 z m 51.413391,-0.731168 c 2.26561,-11.25967 -4.11967,-19.13772 -3.34746,-2.783101 -5.8e-4,4.517664 -0.058,5.18085 -0.56709,6.570903 l -0.56621,1.546085 1.7542,-1.855179 c 0.96481,-1.020348 2.19176,-2.585779 2.72656,-3.478708 z"
       id="path387"
       sodipodi:nodetypes="sssssssccsssssssssssssscssssssssccsssccssssssscsssssscsscssssscsccsssccssscccsccccccccccccccsssccssscssccscsc" />
  </g>
</svg>
