<?xml version="1.0" encoding="UTF-8" standalone="no"?>
<!-- Created with Inkscape (http://www.inkscape.org/) -->

<svg
   width="210mm"
   height="297mm"
   viewBox="0 0 210 297"
   version="1.1"
   id="svg12"
   sodipodi:docname="nusantara_bites.svg"
   inkscape:version="1.1.2 (0a00cf5339, 2022-02-04)"
   xmlns:inkscape="http://www.inkscape.org/namespaces/inkscape"
   xmlns:sodipodi="http://sodipodi.sourceforge.net/DTD/sodipodi-0.dtd"
   xmlns="http://www.w3.org/2000/svg"
   xmlns:svg="http://www.w3.org/2000/svg">
  <sodipodi:namedview
     id="namedview14"
     pagecolor="#ffffff"
     bordercolor="#cccccc"
     borderopacity="1"
     inkscape:pageshadow="0"
     inkscape:pageopacity="1"
     inkscape:pagecheckerboard="0"
     inkscape:document-units="mm"
     showgrid="false"
     inkscape:zoom="0.5"
     inkscape:cx="-194"
     inkscape:cy="607"
     inkscape:window-width="2560"
     inkscape:window-height="989"
     inkscape:window-x="13"
     inkscape:window-y="11"
     inkscape:window-maximized="0"
     inkscape:current-layer="layer1" />
  <defs
     id="defs9" />
  <g
     inkscape:label="Layer 1"
     inkscape:groupmode="layer"
     id="layer1">
    <path
       style="fill:#4d4d4d;stroke-width:0.407256"
       d="m 96.924618,227.17877 c -7.482066,-0.37605 -10.395159,-0.79635 -18.236435,-2.6311 -9.494679,-2.22167 -20.911274,-7.28437 -29.858249,-13.24066 -2.694269,-1.79368 -5.129399,-3.47144 -5.411392,-3.72837 -0.281979,-0.25692 -1.432653,-1.19739 -2.557028,-2.08991 C 37.884199,203.12536 29.057559,194.1898 26.389711,190.83836 15.525824,177.19076 8.0148362,158.17884 4.0338401,134.25094 2.6101959,125.69402 2.5313146,123.87904 3.3895959,119.42758 3.9747677,92.690181 169.85064,50.42569 207.99529,127.59567 c -3.5e-4,9.22642 -1.87358,17.99288 -6.1116,28.60138 -2.44008,6.10793 -9.67423,19.7984 -15.11321,28.60135 -8.15967,13.2064 -18.87304,24.59097 -28.22876,29.99732 -8.33031,4.8138 -21.05652,8.82769 -33.52381,10.57353 -1.01185,0.14168 -3.49545,0.50267 -5.51915,0.80215 -2.02369,0.2995 -5.8871,0.66035 -8.58536,0.8019 -2.69826,0.14154 -5.54982,0.31605 -6.3368,0.38777 -0.78701,0.0717 -4.23039,-0.0107 -7.651982,-0.18229 z m 69.963212,-29.25343 c 1.11,-0.50189 2.81267,-2.80774 3.2096,-4.34667 0.31275,-1.21262 -0.24911,-2.70877 -1.14541,-3.05007 -1.83229,-0.69774 -6.24526,4.0583 -5.7141,6.15832 0.43595,1.7237 1.65885,2.13863 3.64991,1.23842 z m 8.49995,-10.04462 c 1.28118,-0.49119 2.27595,-1.45615 4.33073,-4.20097 4.17619,-5.57866 9.49651,-18.43933 8.91048,-21.53913 -0.16255,-0.85981 -0.62171,-1.6536 -1.10499,-1.91026 -0.70334,-0.37351 -1.03459,-0.22061 -2.21682,1.02329 -0.76444,0.80435 -1.94772,2.62229 -2.62951,4.03988 -1.10963,2.30723 -4.76937,7.9429 -9.82405,15.12816 -1.42496,2.02561 -1.80877,2.95021 -1.956,4.7119 -0.16299,1.95051 -0.0769,2.26638 0.78273,2.8694 0.94239,0.66112 1.732,0.63507 3.70743,-0.1222 z M 124.60909,172.4436 c 13.30561,-1.76294 25.19965,-4.61337 36.58999,-8.76888 2.24857,-0.82031 5.03881,-1.81993 6.20056,-2.22136 3.64499,-1.25947 12.45341,-5.95415 16.20781,-8.63838 12.32414,-23.94053 13.58312,-8.94963 14.81034,-24.52608 -2.21757,5.41206 -7.26081,11.26873 -14.12391,16.40196 -14.86537,11.11846 -39.23043,18.27232 -69.49663,20.40495 -3.03553,0.21388 -9.1066,0.84995 -13.49128,1.41345 -4.384657,0.56354 -9.627858,1.22761 -11.651552,1.47575 -8.706079,1.06756 -14.834044,2.58863 -13.043619,3.23771 1.014299,0.36772 9.520505,1.54508 14.474512,2.00348 6.781882,0.62752 26.324119,0.17131 33.523779,-0.7826 z m 28.20904,-0.40687 c 17.75575,-3.96227 34.7099,-13.34419 46.54221,-25.75511 3.1294,-3.28243 3.86871,-4.54585 4.34709,-7.42899 0.39525,-2.38211 -0.31571,-2.01768 -3.06506,1.57102 -5.76896,7.53016 -17.99279,17.00424 -27.99614,21.69839 -5.78579,2.71503 -19.64668,7.30495 -28.00463,9.27349 -6.06545,1.42859 -6.32833,1.55175 -3.88385,1.81952 2.80503,0.30726 7.42651,-0.14429 12.06038,-1.17832 z m -28.82226,-10.13466 c 9.32173,-0.98336 29.41343,-4.98116 30.57968,-6.08469 0.17958,-0.16993 0.33036,-2.39041 0.33508,-4.93441 0.014,-7.79002 -1.65411,-12.09641 -6.58959,-17.00732 -3.5307,-3.51317 -6.01275,-4.95732 -10.46001,-6.08601 -8.3267,-2.11328 -15.83375,0.10691 -21.97885,6.49995 -3.87627,4.03274 -5.82718,7.77424 -5.57893,10.6994 0.50595,5.96179 -0.26582,11.27434 -2.26894,15.61825 -0.55261,1.1984 -1.00499,2.20251 -1.00527,2.23131 -0.002,0.18574 13.27574,-0.54711 16.96683,-0.93648 z m -20.15095,-0.83673 c 1.89154,-3.80648 2.83039,-7.82498 2.82521,-12.09273 -0.006,-4.69743 -0.66029,-7.51331 -2.58232,-11.10852 -1.49674,-2.79962 -5.926991,-7.14376 -8.71335,-8.54396 -13.313358,-6.69022 -27.711077,0.006 -30.684602,14.27029 -1.039773,4.988 -0.134426,9.37266 2.791371,13.5194 4.653789,1.9308 32.790431,11.14619 36.363691,3.95552 z M 62.915895,156.6798 c -1.243542,-2.41885 -2.083774,-6.2124 -2.083774,-9.40803 0,-10.93434 8.172195,-21.12664 18.717505,-23.34433 1.510242,-0.31762 3.22825,-0.58065 3.817774,-0.58451 -13.593957,-28.561317 -47.860741,-4.68576 -43.523584,25.77539 3.045411,5.91115 16.974591,8.21348 23.551793,9.08375 0.173196,0.0123 -0.04266,-0.67216 -0.479714,-1.52227 z M 181.2731,142.89146 c 0.0229,-0.38241 0.69877,-2.33735 1.502,-4.34432 3.34047,-8.6277 3.1357,-17.61506 0.69313,-27.03993 -11.86164,-28.743835 -63.87946,-20.990616 -47.24936,11.85966 0,0 -1.44099,-2.00983 8.01441,2.33362 12.30402,7.95279 16.03529,13.77179 15.67417,22.36093 -5.89772,12.51322 19.47044,-0.46925 21.36565,-5.16996 z m -157.79134,-4.07799 0.261721,4.24449 1.418237,0.92254 C 51.286201,165.64074 21.280847,80.2062 23.48176,138.81347 Z M 10.955251,124.94713 c 0.209402,3.67638 5.996952,14.19171 8.93695,15.02216 5.569202,-7.33911 -5.219699,-31.83234 -8.93695,-15.02216 z m 102.747999,6.35575 c 4.20046,-4.26794 9.12952,-6.67087 15.91397,-7.75808 1.49518,-0.2396 1.5331,-0.2888 1.5331,-1.98802 0,-2.67745 -1.50282,-7.90168 -2.97149,-10.32976 -5.87377,-15.842884 -49.551613,-3.18983 -40.675635,11.93498 0.131805,0.13079 1.49403,0.52186 3.026977,0.86885 1.532966,0.34697 3.593592,0.97389 4.579183,1.39313 4.822005,2.0511 9.790695,6.56922 12.157395,11.05492 l 1.16343,2.20507 1.5785,-2.61553 c 0.86819,-1.43851 2.53074,-3.58303 3.69457,-4.76556 z m 80.94484,-1.15115 c 3.56695,-17.72713 -6.48598,-30.13027 -5.27023,-4.38169 -9.2e-4,7.11257 -0.0913,8.1567 -0.89282,10.34519 l -0.89143,2.43414 2.7618,-2.92079 c 1.51899,-1.60643 3.45069,-4.07102 4.29268,-5.47685 z"
       id="path387"
       sodipodi:nodetypes="sssssssccsssssssssssssscssssssssccsssccssssssscsssssscsscssssscsccsssccssscccsccccccccccccccsssccssscssccscsc" />
  </g>
</svg>
